<svg id="svg" version="1.1" xmlns="http://www.w3.org/2000/svg" xmlns:xlink="http://www.w3.org/1999/xlink" width="400" height="400" viewBox="0, 0, 400,400"><g id="svgg"><path id="path0" d="M80.600 0.291 C 79.720 0.380,78.829 0.621,78.620 0.827 C 78.411 1.032,77.747 1.200,77.144 1.200 C 76.541 1.200,75.958 1.344,75.849 1.521 C 75.740 1.697,74.739 2.090,73.625 2.393 C 72.511 2.696,71.600 3.092,71.600 3.272 C 71.600 3.453,71.240 3.600,70.800 3.600 C 70.360 3.600,70.000 3.780,70.000 4.000 C 70.000 4.220,69.640 4.400,69.200 4.400 C 68.760 4.400,68.400 4.580,68.400 4.800 C 68.400 5.020,68.040 5.200,67.600 5.200 C 67.160 5.200,66.800 5.380,66.800 5.600 C 66.800 5.820,66.440 6.000,66.000 6.000 C 65.560 6.000,65.200 6.150,65.200 6.332 C 65.200 6.515,64.705 6.919,64.100 7.230 C 63.495 7.540,62.709 8.111,62.353 8.497 C 61.997 8.884,61.579 9.200,61.425 9.200 C 61.270 9.200,60.890 9.425,60.580 9.700 C 60.271 9.975,59.282 10.830,58.383 11.600 C 57.484 12.370,56.265 13.511,55.674 14.135 C 55.083 14.759,53.880 16.021,53.000 16.940 C 52.120 17.858,51.145 19.103,50.832 19.705 C 50.520 20.307,50.137 20.800,49.981 20.800 C 49.825 20.800,49.473 21.340,49.200 22.000 C 48.927 22.660,48.545 23.200,48.351 23.200 C 48.158 23.200,48.000 23.560,48.000 24.000 C 48.000 24.440,47.820 24.800,47.600 24.800 C 47.380 24.800,47.200 25.145,47.200 25.567 C 47.200 25.988,47.065 26.393,46.900 26.467 C 46.735 26.540,46.175 27.500,45.656 28.600 C 45.137 29.700,44.548 30.919,44.347 31.309 C 44.147 31.699,43.872 32.824,43.737 33.809 C 43.602 34.794,43.336 35.600,43.146 35.600 C 42.956 35.600,42.800 36.399,42.800 37.376 C 42.800 38.353,42.620 39.264,42.400 39.400 C 42.180 39.536,42.000 40.897,42.000 42.424 C 42.000 44.008,41.828 45.200,41.600 45.200 C 41.380 45.200,41.200 45.830,41.200 46.600 L 41.200 48.000 32.024 48.000 C 26.337 48.000,22.753 48.152,22.600 48.400 C 22.464 48.620,21.834 48.800,21.200 48.800 C 20.566 48.800,19.936 48.980,19.800 49.200 C 19.664 49.420,19.113 49.600,18.576 49.600 C 18.039 49.600,17.600 49.780,17.600 50.000 C 17.600 50.220,17.240 50.400,16.800 50.400 C 16.360 50.400,16.000 50.580,16.000 50.800 C 16.000 51.020,15.752 51.200,15.448 51.200 C 15.145 51.200,14.155 51.920,13.248 52.800 C 12.341 53.680,11.431 54.400,11.226 54.400 C 11.022 54.400,10.738 54.766,10.596 55.213 C 10.454 55.660,9.902 56.462,9.369 56.995 C 8.836 57.528,8.400 58.202,8.400 58.494 C 8.400 58.785,8.040 59.283,7.600 59.600 C 7.160 59.917,6.800 60.587,6.800 61.088 C 6.800 61.590,6.620 62.000,6.400 62.000 C 6.180 62.000,6.000 62.439,6.000 62.976 C 6.000 63.513,5.820 64.064,5.600 64.200 C 5.380 64.336,5.200 65.326,5.200 66.400 C 5.200 67.474,5.020 68.464,4.800 68.600 C 4.580 68.736,4.400 69.737,4.400 70.824 C 4.400 71.911,4.580 72.800,4.800 72.800 C 5.020 72.800,5.200 73.754,5.200 74.920 C 5.200 76.086,5.349 77.211,5.530 77.420 C 5.712 77.629,6.110 78.610,6.414 79.600 C 6.718 80.590,7.289 81.691,7.683 82.047 C 8.077 82.403,8.400 82.948,8.400 83.259 C 8.400 83.569,8.760 84.083,9.200 84.400 C 9.640 84.717,10.000 85.188,10.000 85.446 C 10.000 85.705,10.464 86.340,11.031 86.858 C 11.598 87.376,12.472 88.186,12.972 88.658 C 14.145 89.766,17.589 91.600,18.497 91.600 C 18.884 91.600,19.200 91.780,19.200 92.000 C 19.200 92.220,19.920 92.400,20.800 92.400 C 21.680 92.400,22.400 92.580,22.400 92.800 C 22.400 93.055,25.800 93.200,31.800 93.200 L 41.200 93.200 41.200 113.600 L 41.200 134.000 32.600 134.000 C 27.133 134.000,24.000 134.146,24.000 134.400 C 24.000 134.620,23.201 134.800,22.224 134.800 C 21.247 134.800,20.336 134.980,20.200 135.200 C 20.064 135.420,19.603 135.600,19.176 135.600 C 18.749 135.600,18.400 135.780,18.400 136.000 C 18.400 136.220,18.166 136.400,17.880 136.400 C 17.144 136.400,15.207 137.341,15.203 137.700 C 15.201 137.865,14.948 138.000,14.641 138.000 C 13.854 138.000,8.400 143.581,8.400 144.386 C 8.400 144.614,8.220 144.800,8.000 144.800 C 7.780 144.800,7.600 145.160,7.600 145.600 C 7.600 146.040,7.420 146.400,7.200 146.400 C 6.980 146.400,6.800 146.760,6.800 147.200 C 6.800 147.640,6.620 148.000,6.400 148.000 C 6.180 148.000,6.000 148.540,6.000 149.200 C 6.000 149.860,5.820 150.400,5.600 150.400 C 5.380 150.400,5.200 151.379,5.200 152.576 C 5.200 153.773,5.020 154.864,4.800 155.000 C 4.278 155.322,4.278 158.800,4.800 158.800 C 5.022 158.800,5.200 159.867,5.200 161.200 C 5.200 162.533,5.378 163.600,5.600 163.600 C 5.820 163.600,6.000 164.140,6.000 164.800 C 6.000 165.460,6.180 166.000,6.400 166.000 C 6.620 166.000,6.800 166.360,6.800 166.800 C 6.800 167.240,6.980 167.600,7.200 167.600 C 7.420 167.600,7.600 167.920,7.600 168.312 C 7.600 168.703,7.960 169.283,8.400 169.600 C 8.840 169.917,9.200 170.411,9.200 170.697 C 9.200 171.334,12.967 175.200,13.587 175.200 C 13.833 175.200,14.420 175.560,14.892 176.000 C 15.364 176.440,15.987 176.800,16.275 176.800 C 16.564 176.800,16.800 176.980,16.800 177.200 C 16.800 177.420,17.250 177.600,17.800 177.600 C 18.350 177.600,18.800 177.780,18.800 178.000 C 18.800 178.220,19.329 178.400,19.976 178.400 C 20.623 178.400,21.264 178.580,21.400 178.800 C 21.554 179.049,25.337 179.200,31.424 179.200 L 41.200 179.200 41.200 200.000 L 41.200 220.800 31.424 220.800 C 25.337 220.800,21.554 220.951,21.400 221.200 C 21.264 221.420,20.623 221.600,19.976 221.600 C 19.329 221.600,18.800 221.780,18.800 222.000 C 18.800 222.220,18.350 222.400,17.800 222.400 C 17.250 222.400,16.800 222.580,16.800 222.800 C 16.800 223.020,16.564 223.200,16.275 223.200 C 15.987 223.200,15.364 223.560,14.892 224.000 C 14.420 224.440,13.938 224.800,13.821 224.800 C 13.189 224.800,9.200 228.770,9.200 229.400 C 9.200 229.528,8.840 230.020,8.400 230.492 C 7.960 230.964,7.600 231.587,7.600 231.875 C 7.600 232.164,7.420 232.400,7.200 232.400 C 6.980 232.400,6.800 232.760,6.800 233.200 C 6.800 233.640,6.620 234.000,6.400 234.000 C 6.180 234.000,6.000 234.540,6.000 235.200 C 6.000 235.860,5.820 236.400,5.600 236.400 C 5.378 236.400,5.200 237.467,5.200 238.800 C 5.200 240.133,5.022 241.200,4.800 241.200 C 4.278 241.200,4.278 245.077,4.800 245.400 C 5.020 245.536,5.200 246.537,5.200 247.624 C 5.200 248.711,5.380 249.600,5.600 249.600 C 5.820 249.600,6.000 250.140,6.000 250.800 C 6.000 251.460,6.180 252.000,6.400 252.000 C 6.620 252.000,6.800 252.360,6.800 252.800 C 6.800 253.240,6.980 253.600,7.200 253.600 C 7.420 253.600,7.600 253.960,7.600 254.400 C 7.600 254.840,7.780 255.200,8.000 255.200 C 8.220 255.200,8.400 255.470,8.400 255.800 C 8.400 256.130,8.580 256.400,8.800 256.400 C 9.020 256.400,9.200 256.603,9.200 256.851 C 9.200 257.481,13.986 262.000,14.653 262.000 C 14.954 262.000,15.200 262.180,15.200 262.400 C 15.200 262.620,15.560 262.800,16.000 262.800 C 16.440 262.800,16.800 262.980,16.800 263.200 C 16.800 263.420,17.160 263.600,17.600 263.600 C 18.040 263.600,18.400 263.780,18.400 264.000 C 18.400 264.220,18.749 264.400,19.176 264.400 C 19.603 264.400,20.064 264.580,20.200 264.800 C 20.336 265.020,21.247 265.200,22.224 265.200 C 23.201 265.200,24.000 265.380,24.000 265.600 C 24.000 265.854,27.133 266.000,32.600 266.000 L 41.200 266.000 41.200 286.400 L 41.200 306.800 31.800 306.800 C 25.800 306.800,22.400 306.945,22.400 307.200 C 22.400 307.420,21.680 307.600,20.800 307.600 C 19.920 307.600,19.200 307.780,19.200 308.000 C 19.200 308.220,18.840 308.400,18.400 308.400 C 17.960 308.400,17.600 308.580,17.600 308.800 C 17.600 309.020,17.240 309.200,16.800 309.200 C 16.360 309.200,16.000 309.380,16.000 309.600 C 16.000 309.820,15.656 310.000,15.236 310.000 C 14.212 310.000,9.457 314.746,8.100 317.124 C 7.367 318.407,6.953 319.254,6.400 320.600 C 6.129 321.260,5.748 322.113,5.553 322.495 C 5.359 322.877,5.200 324.092,5.200 325.195 C 5.200 326.298,5.020 327.200,4.800 327.200 C 4.278 327.200,4.278 331.077,4.800 331.400 C 5.020 331.536,5.200 332.526,5.200 333.600 C 5.200 334.674,5.380 335.664,5.600 335.800 C 5.820 335.936,6.000 336.487,6.000 337.024 C 6.000 337.561,6.180 338.000,6.400 338.000 C 6.620 338.000,6.800 338.450,6.800 339.000 C 6.800 339.550,6.980 340.000,7.200 340.000 C 7.420 340.000,7.600 340.270,7.600 340.600 C 7.600 340.930,7.780 341.200,8.000 341.200 C 8.220 341.200,8.400 341.386,8.400 341.614 C 8.400 342.477,14.595 348.800,15.441 348.800 C 15.748 348.800,16.000 348.980,16.000 349.200 C 16.000 349.420,16.360 349.600,16.800 349.600 C 17.240 349.600,17.600 349.780,17.600 350.000 C 17.600 350.220,18.039 350.400,18.576 350.400 C 19.113 350.400,19.664 350.580,19.800 350.800 C 19.936 351.020,20.566 351.200,21.200 351.200 C 21.834 351.200,22.464 351.380,22.600 351.600 C 22.753 351.848,26.337 352.000,32.024 352.000 L 41.200 352.000 41.200 353.376 C 41.200 354.133,41.380 354.864,41.600 355.000 C 41.820 355.136,42.000 356.396,42.000 357.800 C 42.000 359.204,42.180 360.464,42.400 360.600 C 42.620 360.736,42.800 361.647,42.800 362.624 C 42.800 363.601,42.956 364.400,43.146 364.400 C 43.336 364.400,43.604 365.225,43.742 366.233 C 43.990 368.040,46.998 374.874,47.660 375.133 C 47.847 375.207,48.000 375.612,48.000 376.033 C 48.000 376.455,48.168 376.800,48.373 376.800 C 48.578 376.800,48.862 377.166,49.004 377.613 C 49.146 378.060,49.698 378.862,50.231 379.395 C 50.764 379.928,51.200 380.564,51.200 380.808 C 51.200 381.052,52.100 382.129,53.200 383.200 C 54.300 384.271,55.200 385.300,55.200 385.486 C 55.200 385.671,55.581 386.088,56.047 386.412 C 56.512 386.735,57.879 387.938,59.085 389.085 C 60.290 390.232,61.619 391.279,62.038 391.412 C 62.457 391.545,62.800 391.822,62.800 392.027 C 62.800 392.232,63.120 392.400,63.512 392.400 C 63.903 392.400,64.483 392.760,64.800 393.200 C 65.117 393.640,65.697 394.000,66.088 394.000 C 66.480 394.000,66.800 394.180,66.800 394.400 C 66.800 394.620,67.160 394.800,67.600 394.800 C 68.040 394.800,68.400 394.980,68.400 395.200 C 68.400 395.420,68.760 395.600,69.200 395.600 C 69.640 395.600,70.000 395.780,70.000 396.000 C 70.000 396.220,70.360 396.400,70.800 396.400 C 71.240 396.400,71.600 396.580,71.600 396.800 C 71.600 397.020,71.962 397.200,72.405 397.200 C 72.848 397.200,73.568 397.380,74.005 397.600 C 74.442 397.820,75.158 398.180,75.595 398.400 C 76.032 398.620,76.806 398.800,77.315 398.800 C 77.824 398.800,78.465 399.025,78.740 399.300 C 79.475 400.035,318.855 400.035,319.100 399.300 C 319.192 399.025,319.781 398.800,320.410 398.800 C 321.038 398.800,321.664 398.620,321.800 398.400 C 321.936 398.180,322.487 398.000,323.024 398.000 C 323.561 398.000,324.000 397.820,324.000 397.600 C 324.000 397.380,324.450 397.200,325.000 397.200 C 325.550 397.200,326.000 397.020,326.000 396.800 C 326.000 396.580,326.360 396.400,326.800 396.400 C 327.240 396.400,327.600 396.220,327.600 396.000 C 327.600 395.780,327.960 395.600,328.400 395.600 C 328.840 395.600,329.200 395.420,329.200 395.200 C 329.200 394.980,329.560 394.800,330.000 394.800 C 330.440 394.800,330.800 394.620,330.800 394.400 C 330.800 394.180,331.120 394.000,331.512 394.000 C 331.903 394.000,332.483 393.640,332.800 393.200 C 333.117 392.760,333.620 392.400,333.917 392.400 C 334.214 392.400,334.692 392.175,334.980 391.900 C 335.267 391.625,335.929 391.130,336.451 390.800 C 337.780 389.960,345.600 382.096,345.600 381.600 C 345.600 381.376,346.140 380.628,346.800 379.937 C 347.460 379.246,348.000 378.438,348.000 378.141 C 348.000 377.843,348.180 377.600,348.400 377.600 C 348.620 377.600,348.800 377.306,348.800 376.947 C 348.800 376.588,349.117 376.003,349.504 375.647 C 350.418 374.808,352.800 370.107,352.800 369.144 C 352.800 368.735,352.980 368.400,353.200 368.400 C 353.420 368.400,353.600 367.961,353.600 367.424 C 353.600 366.887,353.780 366.336,354.000 366.200 C 354.220 366.064,354.400 365.423,354.400 364.776 C 354.400 364.129,354.580 363.600,354.800 363.600 C 355.020 363.600,355.200 362.880,355.200 362.000 C 355.200 361.120,355.365 360.400,355.567 360.400 C 355.769 360.400,356.034 359.185,356.155 357.700 C 356.277 356.215,356.488 353.965,356.625 352.700 L 356.874 350.400 362.013 350.400 C 365.008 350.400,367.256 350.233,367.400 350.000 C 367.536 349.780,368.717 349.600,370.024 349.600 C 371.341 349.600,372.400 349.422,372.400 349.200 C 372.400 348.980,373.030 348.800,373.800 348.800 C 374.570 348.800,375.200 348.620,375.200 348.400 C 375.200 348.180,375.560 348.000,376.000 348.000 C 376.440 348.000,376.800 347.820,376.800 347.600 C 376.800 347.380,377.160 347.200,377.600 347.200 C 378.040 347.200,378.400 347.020,378.400 346.800 C 378.400 346.580,378.760 346.400,379.200 346.400 C 379.640 346.400,380.000 346.220,380.000 346.000 C 380.000 345.780,380.320 345.600,380.712 345.600 C 381.103 345.600,381.683 345.240,382.000 344.800 C 382.317 344.360,382.803 344.000,383.080 344.000 C 383.651 344.000,389.600 338.446,389.600 337.913 C 389.600 337.722,389.958 337.183,390.395 336.713 C 390.832 336.244,391.302 335.261,391.440 334.530 C 391.577 333.798,391.849 333.200,392.045 333.200 C 392.240 333.200,392.400 332.840,392.400 332.400 C 392.400 331.960,392.580 331.600,392.800 331.600 C 393.020 331.600,393.200 331.251,393.200 330.824 C 393.200 330.397,393.380 329.936,393.600 329.800 C 393.820 329.664,394.000 328.933,394.000 328.176 C 394.000 327.419,394.180 326.800,394.400 326.800 C 394.625 326.800,394.800 325.675,394.800 324.224 C 394.800 322.807,394.980 321.536,395.200 321.400 C 395.755 321.057,395.755 78.943,395.200 78.600 C 394.980 78.464,394.800 77.193,394.800 75.776 C 394.800 74.325,394.625 73.200,394.400 73.200 C 394.180 73.200,394.000 72.480,394.000 71.600 C 394.000 70.720,393.820 70.000,393.600 70.000 C 393.380 70.000,393.200 69.651,393.200 69.224 C 393.200 68.797,393.020 68.336,392.800 68.200 C 392.580 68.064,392.400 67.603,392.400 67.176 C 392.400 66.749,392.240 66.400,392.043 66.400 C 391.847 66.400,391.565 65.916,391.417 65.324 C 390.929 63.381,383.581 55.200,382.323 55.200 C 382.127 55.200,381.580 54.840,381.108 54.400 C 380.636 53.960,380.013 53.600,379.725 53.600 C 379.436 53.600,379.200 53.420,379.200 53.200 C 379.200 52.980,378.840 52.800,378.400 52.800 C 377.960 52.800,377.600 52.620,377.600 52.400 C 377.600 52.180,377.060 52.000,376.400 52.000 C 375.740 52.000,375.200 51.820,375.200 51.600 C 375.200 51.380,374.660 51.200,374.000 51.200 C 373.340 51.200,372.800 51.020,372.800 50.800 C 372.800 50.580,371.911 50.400,370.824 50.400 C 369.737 50.400,368.736 50.220,368.600 50.000 C 368.454 49.763,366.008 49.600,362.612 49.600 L 356.871 49.600 356.629 47.100 C 356.495 45.725,356.284 43.475,356.159 42.100 C 356.034 40.725,355.767 39.600,355.566 39.600 C 355.365 39.600,355.200 38.880,355.200 38.000 C 355.200 37.120,355.020 36.400,354.800 36.400 C 354.580 36.400,354.400 35.871,354.400 35.224 C 354.400 34.577,354.220 33.936,354.000 33.800 C 353.780 33.664,353.600 33.113,353.600 32.576 C 353.600 32.039,353.420 31.600,353.200 31.600 C 352.980 31.600,352.800 31.257,352.800 30.838 C 352.800 30.022,351.199 26.688,350.700 26.467 C 350.535 26.393,350.400 26.071,350.400 25.750 C 350.400 25.429,350.040 24.780,349.600 24.308 C 349.160 23.836,348.800 23.213,348.800 22.925 C 348.800 22.636,348.620 22.400,348.400 22.400 C 348.180 22.400,348.000 22.112,348.000 21.760 C 348.000 21.409,347.460 20.617,346.800 20.000 C 346.140 19.383,345.600 18.690,345.600 18.460 C 345.600 17.838,337.929 10.000,337.321 10.000 C 337.035 10.000,336.800 9.820,336.800 9.600 C 336.800 9.380,336.570 9.200,336.288 9.200 C 336.007 9.200,335.517 8.840,335.200 8.400 C 334.883 7.960,334.386 7.600,334.095 7.600 C 333.804 7.600,333.180 7.240,332.708 6.800 C 332.236 6.360,331.613 6.000,331.325 6.000 C 331.036 6.000,330.800 5.820,330.800 5.600 C 330.800 5.380,330.440 5.200,330.000 5.200 C 329.560 5.200,329.200 5.020,329.200 4.800 C 329.200 4.580,328.840 4.400,328.400 4.400 C 327.960 4.400,327.600 4.220,327.600 4.000 C 327.600 3.780,327.240 3.600,326.800 3.600 C 326.360 3.600,326.000 3.420,326.000 3.200 C 326.000 2.980,325.550 2.800,325.000 2.800 C 324.450 2.800,324.000 2.620,324.000 2.400 C 324.000 2.180,323.561 2.000,323.024 2.000 C 322.487 2.000,321.936 1.820,321.800 1.600 C 321.664 1.380,321.038 1.200,320.410 1.200 C 319.781 1.200,319.192 0.975,319.100 0.700 C 318.941 0.224,85.212 -0.177,80.600 0.291 M112.491 34.700 C 112.610 59.902,112.545 59.201,114.932 60.964 C 117.172 62.618,121.998 61.742,123.316 59.443 C 123.673 58.822,123.853 52.451,124.000 35.200 L 124.200 11.800 217.000 11.683 C 283.338 11.600,310.484 11.692,312.200 12.007 C 315.254 12.568,317.609 13.179,318.495 13.639 C 318.877 13.838,319.396 14.000,319.649 14.000 C 321.897 14.000,332.073 20.923,334.497 24.101 C 335.097 24.887,335.824 25.771,336.113 26.065 C 337.084 27.054,339.025 30.180,340.295 32.800 C 341.450 35.182,342.131 36.974,343.336 40.800 C 343.651 41.802,343.837 78.895,343.988 171.200 C 344.175 284.803,344.272 300.339,344.800 301.364 C 346.720 305.089,352.605 305.351,354.794 301.810 C 355.524 300.628,355.600 299.826,355.600 293.267 C 355.600 284.515,354.959 285.200,363.154 285.200 C 368.860 285.200,370.236 285.016,374.651 283.666 C 376.561 283.082,378.817 281.977,380.728 280.688 C 381.679 280.047,382.579 279.645,382.728 279.795 C 383.299 280.368,383.038 322.490,382.452 324.200 C 379.151 333.846,373.386 337.600,361.873 337.600 L 355.600 337.600 355.600 332.659 C 355.600 325.009,352.626 321.986,347.479 324.405 C 344.202 325.945,344.232 325.788,343.958 342.800 C 343.686 359.697,343.645 359.975,340.352 367.131 C 335.661 377.326,325.438 385.317,314.000 387.731 C 312.366 388.076,287.658 388.196,218.000 388.198 L 124.200 388.200 124.000 236.269 L 123.800 84.339 122.339 83.000 C 119.459 80.361,115.282 80.834,113.416 84.011 L 112.600 85.400 112.498 236.900 L 112.396 388.400 101.098 388.397 C 84.159 388.392,78.442 387.168,70.508 381.845 C 60.874 375.381,53.407 362.370,54.070 353.200 L 54.200 351.400 64.000 351.173 C 70.698 351.017,74.180 350.781,75.000 350.426 C 86.796 345.317,92.459 336.024,90.251 325.400 C 87.558 312.449,79.471 307.222,62.100 307.207 L 54.000 307.200 54.000 286.253 L 54.000 265.306 63.500 265.094 C 74.186 264.856,75.860 264.511,80.289 261.632 C 96.581 251.047,92.740 226.782,73.982 221.790 C 72.389 221.366,69.397 221.208,62.896 221.205 L 53.993 221.200 54.096 200.100 L 54.200 179.000 63.800 178.776 C 77.359 178.460,81.792 176.610,86.750 169.200 C 89.131 165.641,89.836 163.791,90.445 159.509 C 91.870 149.490,85.349 139.450,75.107 135.895 C 74.352 135.632,69.665 135.348,64.000 135.220 L 54.200 135.000 54.096 113.937 L 53.993 92.874 63.496 92.694 C 70.636 92.559,73.458 92.360,74.840 91.895 C 93.840 85.490,96.260 60.719,78.800 51.345 C 74.921 49.263,73.676 49.056,63.600 48.820 L 54.200 48.600 54.070 46.800 C 53.416 37.749,60.859 24.703,70.319 18.320 C 78.532 12.777,83.376 11.742,101.491 11.653 L 112.381 11.600 112.491 34.700 M73.400 61.548 C 81.302 66.229,80.557 77.239,72.124 80.394 C 69.365 81.426,27.105 81.631,24.287 80.625 C 14.450 77.116,14.956 62.956,25.000 60.660 C 25.440 60.560,36.150 60.505,48.800 60.539 L 71.800 60.600 73.400 61.548 M369.724 62.992 C 375.660 64.793,380.414 69.569,382.231 75.553 C 383.281 79.014,383.043 129.125,381.960 132.434 C 380.192 137.837,375.623 142.381,370.226 144.105 C 367.129 145.094,357.156 145.594,356.208 144.807 C 355.570 144.277,355.233 63.300,355.867 62.667 C 356.409 62.125,367.742 62.391,369.724 62.992 M225.200 77.430 C 207.761 80.414,195.261 89.512,188.143 104.400 C 185.744 109.420,185.642 109.726,184.025 116.877 C 183.791 117.910,183.600 121.510,183.600 124.877 C 183.600 137.975,187.945 148.768,197.035 158.250 C 200.681 162.052,200.826 161.438,195.593 164.368 C 189.514 167.772,184.159 171.925,179.200 177.080 C 174.831 181.621,174.424 182.088,172.814 184.400 C 172.277 185.170,171.739 185.890,171.618 186.000 C 171.387 186.210,170.020 188.297,168.343 191.000 C 164.495 197.204,161.332 205.874,159.231 215.978 C 157.513 224.241,158.316 231.287,161.131 232.649 C 165.731 234.874,169.600 232.116,169.600 226.611 C 169.600 223.699,170.497 216.718,171.246 213.800 C 172.513 208.866,173.818 205.242,175.857 201.000 C 182.812 186.527,196.161 174.807,211.600 169.619 C 220.050 166.780,221.641 161.066,214.954 157.573 C 207.188 153.516,200.763 146.653,197.756 139.200 C 197.179 137.770,196.561 136.240,196.383 135.800 C 194.846 131.993,194.381 120.742,195.598 116.800 C 195.836 116.030,196.215 114.770,196.442 114.000 C 202.070 94.843,224.694 83.447,243.200 90.447 C 273.699 101.985,276.264 141.744,247.531 157.561 C 244.521 159.218,243.797 160.324,243.814 163.237 C 243.834 166.560,244.913 167.576,250.404 169.440 C 256.411 171.479,267.001 177.079,268.800 179.168 C 268.910 179.295,270.133 180.365,271.519 181.544 C 272.904 182.723,274.974 184.676,276.119 185.884 C 282.317 192.425,287.972 202.201,290.069 210.000 C 290.276 210.770,290.629 212.030,290.853 212.800 C 291.649 215.535,292.007 217.876,292.559 223.949 C 293.257 231.644,294.326 233.366,298.400 233.361 C 304.443 233.354,305.676 226.090,302.162 211.200 C 298.505 195.704,289.891 181.984,277.174 171.400 C 273.719 168.524,268.437 165.046,264.484 163.043 C 261.887 161.727,261.842 161.986,265.312 158.356 C 272.145 151.210,275.814 144.106,278.359 133.094 C 278.922 130.661,278.933 119.342,278.375 116.877 C 276.732 109.612,276.634 109.321,274.050 103.944 C 267.918 91.183,256.432 81.988,242.119 78.382 C 238.729 77.528,228.116 76.931,225.200 77.430 M73.088 147.687 C 80.855 151.323,80.802 162.558,73.000 166.247 L 71.000 167.192 48.000 167.192 L 25.000 167.192 22.997 166.259 C 13.767 161.961,16.089 147.757,26.200 146.661 C 31.811 146.053,71.451 146.920,73.088 147.687 M381.973 197.175 C 379.925 203.514,375.201 207.866,368.708 209.397 C 365.583 210.134,356.780 210.220,356.080 209.520 C 355.717 209.157,355.600 202.748,355.600 183.128 L 355.600 157.215 356.500 157.031 C 356.995 156.930,360.280 156.749,363.800 156.629 C 371.778 156.357,375.011 155.527,380.200 152.418 L 382.600 150.981 382.703 172.787 C 382.804 193.947,382.782 194.670,381.973 197.175 M382.800 237.334 C 382.800 257.894,382.770 258.760,381.964 261.214 C 380.081 266.950,375.640 271.249,369.600 273.182 C 367.366 273.897,356.961 274.232,356.215 273.613 C 355.265 272.824,355.282 222.208,356.233 221.843 C 356.581 221.709,359.146 221.599,361.933 221.597 C 370.304 221.592,376.095 220.140,381.000 216.818 C 381.660 216.371,382.335 216.004,382.500 216.003 C 382.665 216.001,382.800 225.600,382.800 237.334 M72.051 233.367 C 80.798 237.042,81.260 248.527,72.822 252.534 C 69.952 253.898,25.521 253.893,22.973 252.529 C 15.119 248.325,15.253 237.166,23.200 233.652 C 25.577 232.601,69.617 232.344,72.051 233.367 M161.121 273.676 C 157.094 276.010,157.979 282.723,162.475 283.954 C 165.357 284.743,299.411 284.400,300.964 283.600 C 304.860 281.592,304.939 275.936,301.104 273.598 C 299.816 272.813,298.955 272.803,231.200 272.811 L 162.600 272.818 161.121 273.676 M184.834 312.301 C 181.296 314.112,181.082 319.920,184.476 321.990 C 186.500 323.224,275.833 323.265,277.854 322.033 C 281.343 319.905,281.180 314.128,277.578 312.301 C 275.448 311.219,186.946 311.219,184.834 312.301 M71.565 319.427 C 80.384 322.046,81.508 333.703,73.400 338.461 L 71.800 339.400 48.889 339.513 C 24.114 339.634,23.943 339.622,21.117 337.473 C 14.783 332.659,16.308 322.495,23.797 319.613 C 26.590 318.537,68.028 318.376,71.565 319.427 " stroke="none" fill="#060707" fill-rule="evenodd"></path><path id="path1" d="M87.224 12.059 C 69.614 13.898,52.954 31.355,54.070 46.800 L 54.200 48.600 63.600 48.820 C 73.676 49.056,74.921 49.263,78.800 51.345 C 96.260 60.719,93.840 85.490,74.840 91.895 C 73.458 92.360,70.636 92.559,63.496 92.694 L 53.993 92.874 54.096 113.937 L 54.200 135.000 64.000 135.220 C 74.156 135.449,74.767 135.542,78.707 137.470 C 87.916 141.975,93.178 154.822,89.537 163.909 C 85.064 175.074,79.281 178.415,63.800 178.776 L 54.200 179.000 54.096 200.100 L 53.993 221.200 62.896 221.205 C 69.397 221.208,72.389 221.366,73.982 221.790 C 92.740 226.782,96.581 251.047,80.289 261.632 C 75.860 264.511,74.186 264.856,63.500 265.094 L 54.000 265.306 54.000 286.253 L 54.000 307.200 62.100 307.207 C 79.471 307.222,87.558 312.449,90.251 325.400 C 92.459 336.024,86.796 345.317,75.000 350.426 C 74.180 350.781,70.698 351.017,64.000 351.173 L 54.200 351.400 54.070 353.200 C 53.407 362.370,60.874 375.381,70.508 381.845 C 78.442 387.168,84.159 388.392,101.098 388.397 L 112.396 388.400 112.498 236.900 C 112.600 85.896,112.603 85.396,113.405 84.030 C 114.318 82.476,116.121 81.272,117.600 81.230 L 118.600 81.201 118.485 72.159 C 118.363 62.542,118.457 62.000,120.249 62.000 C 120.825 62.000,121.831 61.369,122.800 60.400 L 124.400 58.800 124.400 35.395 L 124.400 11.990 218.602 12.095 C 270.413 12.153,312.282 12.065,311.643 11.899 C 311.004 11.734,268.568 11.644,217.341 11.699 L 124.200 11.800 124.000 35.200 C 123.853 52.451,123.673 58.822,123.316 59.443 C 121.998 61.742,117.172 62.618,114.932 60.964 C 112.545 59.201,112.610 59.902,112.491 34.700 L 112.381 11.600 101.491 11.653 C 95.501 11.682,89.081 11.865,87.224 12.059 M313.233 12.547 C 313.325 12.628,314.120 12.814,315.000 12.962 C 316.146 13.154,316.430 13.114,316.000 12.821 C 315.460 12.453,312.832 12.193,313.233 12.547 M318.200 13.851 C 324.477 16.241,328.006 18.446,332.677 22.892 C 335.133 25.230,335.749 25.685,334.776 24.443 C 331.886 20.753,321.994 14.000,319.478 14.000 C 319.131 14.000,318.736 13.820,318.600 13.600 C 318.464 13.380,317.958 13.209,317.476 13.221 C 316.866 13.235,317.085 13.426,318.200 13.851 M337.726 29.100 C 339.738 32.276,340.907 34.646,341.822 37.400 C 343.684 43.006,343.600 36.679,343.600 171.840 C 343.600 265.762,343.719 299.437,344.054 300.440 C 344.517 301.824,346.260 304.000,346.906 304.000 C 347.101 304.000,346.722 303.546,346.062 302.991 C 343.912 301.182,344.000 306.808,344.000 171.200 C 344.000 81.851,343.872 43.814,343.567 42.320 C 342.467 36.931,337.681 26.441,336.308 26.407 C 336.148 26.403,336.786 27.615,337.726 29.100 M25.000 60.659 C 20.450 61.694,17.210 65.789,17.204 70.513 C 17.200 72.966,18.102 76.432,18.611 75.923 C 18.721 75.813,18.538 75.071,18.205 74.274 C 16.326 69.777,18.502 64.309,23.112 61.945 L 24.955 61.000 47.977 61.111 C 70.082 61.217,71.069 61.254,72.729 62.026 C 74.666 62.928,77.200 65.267,77.200 66.153 C 77.200 66.472,77.419 66.806,77.688 66.896 C 78.350 67.117,78.329 74.490,77.665 74.712 C 77.409 74.797,77.200 75.128,77.200 75.447 C 77.200 76.318,74.716 78.629,72.769 79.569 C 71.090 80.381,70.515 80.400,47.921 80.400 C 22.084 80.400,22.669 80.461,20.181 77.505 C 19.623 76.842,19.076 76.390,18.966 76.501 C 18.624 76.842,21.201 79.182,22.946 80.115 C 25.469 81.465,68.579 81.720,72.091 80.406 C 80.556 77.239,81.320 66.239,73.400 61.548 L 71.800 60.600 48.800 60.539 C 36.150 60.505,25.440 60.559,25.000 60.659 M228.700 77.096 C 230.075 77.174,232.325 77.174,233.700 77.096 C 235.075 77.018,233.950 76.954,231.200 76.954 C 228.450 76.954,227.325 77.018,228.700 77.096 M221.200 77.673 C 217.032 78.838,215.569 79.302,215.689 79.422 C 215.762 79.495,217.167 79.198,218.811 78.760 C 220.455 78.323,222.790 77.815,224.000 77.632 L 226.200 77.298 224.400 77.290 C 223.410 77.285,221.970 77.458,221.200 77.673 M237.400 77.467 C 239.805 77.763,245.603 79.261,248.040 80.216 C 249.414 80.754,250.622 81.111,250.725 81.009 C 251.350 80.383,240.152 77.161,237.694 77.260 C 236.386 77.312,236.349 77.338,237.400 77.467 M212.853 80.253 C 212.113 80.576,211.591 80.924,211.694 81.027 C 211.797 81.130,212.673 80.855,213.640 80.416 C 214.608 79.977,215.130 79.628,214.800 79.641 C 214.470 79.655,213.594 79.930,212.853 80.253 M120.215 81.625 C 120.883 81.820,121.963 82.535,122.615 83.216 L 123.800 84.453 124.000 236.326 L 124.200 388.200 217.663 388.301 C 269.067 388.356,311.492 388.266,311.939 388.101 C 312.386 387.935,270.373 387.847,218.576 387.905 L 124.400 388.010 124.400 236.367 L 124.400 84.723 123.568 83.556 C 122.654 82.272,120.842 81.180,119.720 81.236 C 119.324 81.256,119.547 81.431,120.215 81.625 M251.233 81.349 C 251.645 81.717,254.000 82.800,254.000 82.621 C 254.000 82.390,251.782 81.200,251.353 81.200 C 251.196 81.200,251.142 81.267,251.233 81.349 M203.874 85.281 C 199.839 88.079,195.414 92.338,192.443 96.283 C 190.383 99.018,186.568 105.901,186.918 106.251 C 187.021 106.355,187.660 105.306,188.337 103.920 C 192.033 96.351,197.439 90.107,204.200 85.598 C 207.837 83.172,208.326 82.792,207.780 82.818 C 207.571 82.827,205.813 83.936,203.874 85.281 M254.620 83.136 C 255.248 83.692,258.000 85.279,258.000 85.086 C 258.000 84.845,254.894 82.800,254.529 82.800 C 254.370 82.800,254.411 82.951,254.620 83.136 M258.540 85.503 C 258.696 85.756,259.391 86.367,260.084 86.860 C 260.777 87.354,261.217 87.550,261.060 87.297 C 260.904 87.044,260.209 86.433,259.516 85.940 C 258.823 85.446,258.383 85.250,258.540 85.503 M261.600 87.684 C 261.600 87.812,262.940 89.217,264.578 90.805 C 268.237 94.353,271.849 99.363,274.050 103.944 C 276.634 109.321,276.732 109.612,278.375 116.877 C 278.609 117.910,278.828 121.690,278.862 125.277 C 278.917 131.046,278.957 131.407,279.207 128.400 C 279.674 122.803,278.750 114.617,277.153 110.200 C 276.584 108.625,276.212 107.699,275.467 105.994 C 275.128 105.221,274.663 104.141,274.433 103.594 C 273.149 100.543,269.488 95.318,266.308 92.000 C 263.776 89.358,261.600 87.363,261.600 87.684 M226.000 88.763 C 225.230 88.904,227.570 89.021,231.200 89.022 C 235.198 89.024,237.090 88.913,236.000 88.742 C 233.809 88.398,227.919 88.410,226.000 88.763 M222.200 89.470 C 216.703 90.687,209.071 95.270,204.581 100.050 C 201.604 103.220,197.578 109.510,197.611 110.941 C 197.616 111.193,198.294 110.140,199.117 108.600 C 204.101 99.273,215.353 90.192,222.200 89.970 C 222.640 89.955,223.360 89.789,223.800 89.600 L 224.600 89.256 223.800 89.275 C 223.360 89.285,222.640 89.372,222.200 89.470 M238.600 89.568 C 239.040 89.774,239.781 89.956,240.247 89.972 C 244.914 90.127,256.437 97.833,260.025 103.200 C 260.540 103.970,261.060 104.690,261.181 104.800 C 261.953 105.505,264.556 110.876,265.436 113.582 C 265.826 114.782,266.214 115.559,266.297 115.310 C 266.380 115.060,265.965 113.629,265.375 112.128 C 261.295 101.755,253.787 94.417,243.200 90.457 C 240.893 89.593,237.093 88.859,238.600 89.568 M185.400 109.600 C 185.250 110.073,185.217 110.550,185.327 110.660 C 185.437 110.770,185.650 110.473,185.800 110.000 C 185.950 109.527,185.983 109.050,185.873 108.940 C 185.763 108.830,185.550 109.127,185.400 109.600 M184.673 112.153 C 184.523 112.545,184.411 113.166,184.425 113.533 C 184.442 113.975,184.581 113.874,184.837 113.234 C 185.049 112.703,185.161 112.082,185.085 111.854 C 185.009 111.627,184.824 111.761,184.673 112.153 M196.977 112.243 C 196.844 112.659,196.570 113.413,196.367 113.919 C 196.165 114.424,196.006 115.144,196.014 115.519 C 196.022 115.893,196.380 115.223,196.810 114.029 C 197.239 112.834,197.507 111.774,197.405 111.671 C 197.302 111.569,197.110 111.826,196.977 112.243 M183.889 115.200 C 183.736 115.750,183.625 116.650,183.642 117.200 C 183.668 118.061,183.726 118.014,184.058 116.860 C 184.270 116.124,184.381 115.224,184.306 114.860 C 184.208 114.394,184.086 114.493,183.889 115.200 M266.487 116.800 C 266.491 117.350,266.632 118.340,266.800 119.000 L 267.105 120.200 267.113 119.000 C 267.117 118.340,266.976 117.350,266.800 116.800 L 266.480 115.800 266.487 116.800 M195.326 117.859 C 194.792 120.384,194.963 131.674,195.549 132.600 C 196.024 133.351,196.041 133.339,195.823 132.400 C 195.309 130.192,195.134 122.425,195.534 119.613 C 195.990 116.408,195.861 115.327,195.326 117.859 M182.998 122.100 C 182.847 123.915,182.898 126.660,183.111 128.200 C 183.473 130.818,183.501 130.604,183.549 124.900 C 183.606 118.112,183.411 117.123,182.998 122.100 M267.348 124.800 C 267.348 127.110,267.414 128.055,267.495 126.900 C 267.576 125.745,267.576 123.855,267.495 122.700 C 267.414 121.545,267.348 122.490,267.348 124.800 M266.600 131.600 C 266.446 132.510,266.411 133.344,266.521 133.454 C 266.631 133.564,266.846 132.910,267.000 132.000 C 267.154 131.090,267.189 130.256,267.079 130.146 C 266.969 130.036,266.754 130.690,266.600 131.600 M183.668 132.800 C 183.662 133.350,183.811 134.160,184.000 134.600 L 184.344 135.400 184.332 134.600 C 184.326 134.160,184.176 133.350,184.000 132.800 L 183.680 131.800 183.668 132.800 M278.200 133.500 C 277.113 140.413,273.326 148.700,268.511 154.700 C 267.760 155.635,267.274 156.400,267.429 156.400 C 268.095 156.400,273.070 148.999,274.689 145.600 C 276.827 141.111,279.476 132.000,278.643 132.000 C 278.529 132.000,278.330 132.675,278.200 133.500 M196.000 134.510 C 196.000 135.083,196.187 135.668,196.416 135.810 C 196.689 135.979,196.738 135.677,196.560 134.934 C 196.192 133.401,196.000 133.256,196.000 134.510 M265.829 135.029 C 265.681 135.615,265.638 136.172,265.732 136.266 C 265.827 136.360,266.024 135.958,266.171 135.371 C 266.319 134.785,266.362 134.228,266.268 134.134 C 266.173 134.040,265.976 134.442,265.829 135.029 M184.412 136.600 C 184.412 137.040,184.587 137.670,184.800 138.000 C 185.121 138.497,185.188 138.462,185.188 137.800 C 185.188 137.360,185.013 136.730,184.800 136.400 C 184.479 135.903,184.412 135.938,184.412 136.600 M196.817 136.726 C 196.796 137.383,199.462 143.200,199.784 143.200 C 199.914 143.200,199.717 142.615,199.345 141.900 C 198.973 141.185,198.256 139.610,197.752 138.400 C 197.247 137.190,196.826 136.437,196.817 136.726 M185.212 139.200 C 185.212 139.530,185.387 140.070,185.600 140.400 C 185.945 140.933,185.988 140.933,185.988 140.400 C 185.988 140.070,185.813 139.530,185.600 139.200 C 185.255 138.667,185.212 138.667,185.212 139.200 M263.053 141.775 C 262.213 143.386,260.642 145.795,259.563 147.129 C 257.516 149.659,256.841 150.982,258.628 148.962 C 260.886 146.410,265.152 139.419,264.717 138.984 C 264.642 138.908,263.893 140.164,263.053 141.775 M186.028 141.292 C 185.982 141.765,187.286 144.848,187.458 144.675 C 187.545 144.588,187.266 143.725,186.837 142.758 C 186.408 141.791,186.044 141.131,186.028 141.292 M187.600 145.477 C 187.600 146.794,193.160 154.710,196.753 158.506 C 198.209 160.045,199.343 161.569,199.273 161.892 C 199.201 162.226,199.331 162.366,199.573 162.217 C 200.301 161.767,200.088 161.434,197.035 158.250 C 193.898 154.977,190.818 150.776,189.009 147.300 C 187.981 145.324,187.600 144.831,187.600 145.477 M201.971 146.664 C 203.225 149.251,210.130 155.053,214.954 157.573 C 216.076 158.159,217.401 159.242,217.897 159.979 C 218.394 160.715,218.800 161.057,218.800 160.738 C 218.800 159.899,216.492 157.831,214.400 156.794 C 210.641 154.932,206.657 151.624,202.604 147.000 C 201.870 146.163,201.679 146.061,201.971 146.664 M26.200 146.661 C 16.089 147.757,13.767 161.961,22.997 166.259 L 25.000 167.192 48.000 167.192 L 71.000 167.192 73.000 166.247 C 80.802 162.558,80.855 151.323,73.088 147.687 C 71.451 146.920,31.811 146.053,26.200 146.661 M71.600 147.711 C 73.209 148.285,75.600 149.659,75.600 150.011 C 75.600 150.142,75.915 150.598,76.300 151.025 C 80.171 155.312,78.426 162.805,72.900 165.629 L 71.000 166.600 47.600 166.600 L 24.200 166.600 22.600 165.545 C 15.422 160.814,15.987 151.195,23.639 147.859 C 25.493 147.050,69.368 146.915,71.600 147.711 M255.771 151.245 C 254.275 152.824,250.384 155.603,247.769 156.959 C 244.084 158.869,242.827 161.010,243.400 164.403 C 243.691 166.124,245.968 168.801,247.140 168.799 C 247.560 168.798,247.364 168.528,246.600 168.056 C 242.210 165.344,242.663 160.240,247.531 157.561 C 251.843 155.187,257.674 150.762,257.171 150.244 C 257.045 150.114,256.415 150.565,255.771 151.245 M380.200 152.418 C 375.011 155.527,371.778 156.357,363.800 156.629 C 360.280 156.749,356.995 156.930,356.500 157.031 L 355.600 157.215 355.600 183.128 C 355.600 202.748,355.717 209.157,356.080 209.520 C 356.780 210.220,365.583 210.134,368.708 209.397 C 375.201 207.866,379.925 203.514,381.973 197.175 C 382.782 194.670,382.804 193.947,382.703 172.787 L 382.600 150.981 380.200 152.418 M264.500 159.113 C 263.345 160.321,262.400 161.462,262.400 161.648 C 262.400 161.834,263.345 162.447,264.500 163.010 C 266.650 164.058,266.293 163.573,263.962 162.280 L 262.665 161.560 265.020 159.180 C 266.315 157.871,267.201 156.826,266.987 156.858 C 266.774 156.889,265.655 157.904,264.500 159.113 M218.901 163.000 C 218.905 163.880,218.987 164.193,219.083 163.695 C 219.179 163.198,219.175 162.478,219.075 162.095 C 218.975 161.713,218.896 162.120,218.901 163.000 M195.146 164.128 C 192.654 165.624,191.700 166.483,193.800 165.341 C 194.900 164.743,196.155 164.016,196.589 163.727 C 197.886 162.861,196.716 163.186,195.146 164.128 M267.020 164.336 C 267.648 164.892,270.400 166.479,270.400 166.286 C 270.400 166.045,267.294 164.000,266.929 164.000 C 266.770 164.000,266.811 164.151,267.020 164.336 M217.923 165.994 C 217.551 166.648,216.651 167.546,215.923 167.990 C 215.076 168.507,214.847 168.798,215.287 168.799 C 216.124 168.800,218.800 166.201,218.800 165.387 C 218.800 164.567,218.694 164.641,217.923 165.994 M270.800 166.563 C 270.800 166.643,271.250 167.003,271.800 167.363 C 272.350 167.724,272.800 167.863,272.800 167.673 C 272.800 167.484,272.350 167.123,271.800 166.873 C 271.250 166.622,270.800 166.483,270.800 166.563 M187.800 168.888 C 181.112 173.694,171.921 183.810,168.277 190.376 C 166.980 192.713,167.099 193.136,168.423 190.900 C 169.571 188.963,171.336 186.256,171.618 186.000 C 171.739 185.890,172.277 185.170,172.814 184.400 C 174.426 182.085,174.833 181.619,179.197 177.091 C 181.505 174.696,184.700 171.736,186.297 170.513 C 188.816 168.583,189.515 167.960,189.100 168.013 C 189.045 168.020,188.460 168.413,187.800 168.888 M212.800 169.200 C 212.267 169.545,212.267 169.588,212.800 169.588 C 213.130 169.588,213.670 169.413,214.000 169.200 C 214.533 168.855,214.533 168.812,214.000 168.812 C 213.670 168.812,213.130 168.987,212.800 169.200 M248.000 168.919 C 248.000 169.033,249.035 169.445,250.300 169.835 C 251.565 170.225,253.390 170.876,254.357 171.282 C 255.323 171.688,256.190 171.943,256.284 171.850 C 256.470 171.664,250.861 169.431,249.094 168.988 C 248.492 168.837,248.000 168.806,248.000 168.919 M274.800 169.268 C 275.130 169.611,276.840 171.131,278.600 172.646 C 284.754 177.943,289.393 183.453,294.052 191.000 C 295.148 192.776,297.718 197.962,298.389 199.755 C 298.628 200.391,298.914 200.820,299.025 200.708 C 299.369 200.365,296.492 194.417,293.881 190.072 C 289.310 182.465,281.403 173.728,275.000 169.208 C 274.278 168.699,274.259 168.705,274.800 169.268 M210.400 170.000 C 209.867 170.345,209.867 170.388,210.400 170.388 C 210.730 170.388,211.270 170.213,211.600 170.000 C 212.133 169.655,212.133 169.612,211.600 169.612 C 211.270 169.612,210.730 169.787,210.400 170.000 M207.400 171.178 C 206.520 171.595,205.993 171.950,206.229 171.968 C 206.464 171.985,207.364 171.647,208.229 171.216 C 210.246 170.210,209.517 170.176,207.400 171.178 M202.400 173.486 C 192.082 179.223,183.407 187.606,177.859 197.200 C 175.838 200.695,173.437 206.006,173.068 207.800 C 172.806 209.073,173.205 208.375,173.982 206.200 C 178.632 193.178,191.698 178.799,204.100 173.057 C 205.497 172.410,206.003 171.973,205.300 172.020 C 205.135 172.031,203.830 172.691,202.400 173.486 M256.864 172.198 C 256.996 172.330,258.382 173.104,259.943 173.919 C 267.634 177.932,276.570 185.877,281.178 192.800 C 284.036 197.094,284.955 198.204,283.593 195.716 C 281.308 191.542,276.142 185.478,271.519 181.544 C 270.133 180.365,268.910 179.295,268.800 179.168 C 268.375 178.674,262.492 174.873,260.400 173.741 C 258.131 172.513,256.443 171.776,256.864 172.198 M164.059 198.445 C 163.859 198.970,163.404 200.097,163.048 200.949 C 162.691 201.801,162.405 202.701,162.411 202.949 C 162.417 203.197,162.954 202.152,163.604 200.627 C 164.255 199.102,164.705 197.772,164.605 197.671 C 164.504 197.571,164.259 197.919,164.059 198.445 M285.869 200.555 C 286.690 202.214,287.443 203.490,287.543 203.390 C 287.764 203.169,285.199 198.046,284.718 197.749 C 284.530 197.633,285.048 198.895,285.869 200.555 M161.867 203.867 C 161.720 204.013,161.600 204.466,161.600 204.872 C 161.600 205.278,161.430 205.923,161.223 206.305 C 160.876 206.946,160.028 210.333,158.765 216.131 C 157.878 220.204,158.033 230.406,159.000 231.532 C 159.964 232.653,161.693 233.611,162.680 233.570 C 163.082 233.553,162.810 233.325,162.064 233.055 C 158.342 231.708,157.295 225.332,159.248 215.904 C 160.110 211.745,160.865 208.699,161.630 206.307 C 162.375 203.974,162.441 203.292,161.867 203.867 M300.030 203.800 C 300.014 204.020,300.352 205.100,300.782 206.200 C 301.211 207.300,301.558 207.840,301.552 207.400 C 301.540 206.560,300.081 203.107,300.030 203.800 M287.600 204.184 C 287.600 204.312,288.050 205.523,288.600 206.877 C 289.150 208.230,289.600 209.607,289.600 209.936 C 289.600 210.264,289.719 210.414,289.865 210.269 C 290.151 209.982,289.271 206.842,288.730 206.220 C 288.549 206.011,288.400 205.527,288.400 205.144 C 288.400 204.761,288.220 204.336,288.000 204.200 C 287.780 204.064,287.600 204.057,287.600 204.184 M301.656 209.000 C 301.656 209.440,301.811 210.160,302.000 210.600 L 302.344 211.400 302.344 210.600 C 302.344 210.160,302.189 209.440,302.000 209.000 L 301.656 208.200 301.656 209.000 M171.844 211.559 C 171.456 212.941,171.234 214.167,171.350 214.283 C 171.466 214.399,171.674 213.978,171.813 213.347 C 171.952 212.716,172.248 211.714,172.473 211.120 C 172.697 210.527,172.806 209.817,172.714 209.543 C 172.623 209.270,172.231 210.177,171.844 211.559 M290.244 211.800 C 290.367 212.460,290.554 213.270,290.661 213.600 C 291.194 215.246,291.702 218.773,292.195 224.258 C 292.495 227.590,292.957 230.662,293.221 231.085 C 293.896 232.166,296.101 233.606,297.025 233.568 C 297.560 233.547,297.428 233.407,296.600 233.118 C 293.659 232.090,293.008 230.603,292.609 224.000 C 292.293 218.775,291.407 213.797,290.368 211.400 C 290.109 210.803,290.078 210.905,290.244 211.800 M302.475 212.200 C 302.486 212.640,302.632 213.540,302.800 214.200 L 303.105 215.400 303.125 214.200 C 303.135 213.540,302.989 212.640,302.800 212.200 L 302.456 211.400 302.475 212.200 M170.618 216.618 C 170.465 217.639,170.430 218.563,170.540 218.673 C 170.650 218.783,170.865 218.039,171.018 217.018 C 171.171 215.998,171.206 215.073,171.096 214.963 C 170.986 214.853,170.771 215.598,170.618 216.618 M303.457 217.800 C 303.591 219.120,303.768 220.275,303.850 220.367 C 304.169 220.721,303.924 216.956,303.579 216.200 C 303.338 215.672,303.296 216.216,303.457 217.800 M169.900 221.756 C 169.735 222.832,169.624 224.902,169.653 226.356 L 169.706 229.000 170.057 225.800 C 170.496 221.799,170.374 218.665,169.900 221.756 M358.500 221.896 C 359.765 221.975,361.835 221.975,363.100 221.896 C 364.365 221.816,363.330 221.751,360.800 221.751 C 358.270 221.751,357.235 221.816,358.500 221.896 M304.099 225.800 C 304.082 228.000,304.196 229.350,304.351 228.800 C 304.506 228.250,304.519 226.450,304.381 224.800 L 304.129 221.800 304.099 225.800 M355.789 247.600 C 355.789 261.790,355.839 267.595,355.900 260.500 C 355.961 253.405,355.961 241.795,355.900 234.700 C 355.839 227.605,355.789 233.410,355.789 247.600 M169.030 230.307 C 168.698 231.351,167.251 232.611,165.800 233.118 C 164.972 233.407,164.840 233.547,165.375 233.568 C 166.906 233.631,170.270 230.536,169.504 229.770 C 169.377 229.644,169.164 229.885,169.030 230.307 M303.230 230.945 C 302.750 231.841,301.590 232.600,299.600 233.320 C 299.137 233.487,299.164 233.544,299.720 233.568 C 301.271 233.636,304.259 231.377,303.929 230.386 C 303.844 230.133,303.530 230.384,303.230 230.945 M23.200 233.652 C 15.253 237.166,15.119 248.325,22.973 252.529 C 25.521 253.893,69.952 253.898,72.822 252.534 C 81.260 248.527,80.798 237.042,72.051 233.367 C 69.617 232.344,25.577 232.601,23.200 233.652 M70.723 233.655 C 73.305 234.281,77.200 237.224,77.200 238.548 C 77.200 238.870,77.416 239.205,77.680 239.293 C 78.004 239.401,78.156 240.548,78.147 242.827 C 78.129 247.331,76.611 250.049,73.239 251.612 C 72.668 251.877,71.887 252.252,71.505 252.447 C 71.123 252.641,60.503 252.798,47.905 252.796 L 25.000 252.792 22.953 251.839 C 14.981 248.127,16.186 236.193,24.797 233.574 C 26.486 233.060,68.576 233.135,70.723 233.655 M196.900 272.700 C 215.765 272.757,246.635 272.757,265.500 272.700 C 284.365 272.642,268.930 272.595,231.200 272.595 C 193.470 272.595,178.035 272.642,196.900 272.700 M160.757 273.399 C 156.547 275.687,158.066 284.599,162.625 284.359 C 163.109 284.334,162.900 284.158,162.070 283.893 C 157.946 282.573,157.325 275.877,161.121 273.676 C 162.748 272.733,162.429 272.490,160.757 273.399 M301.104 273.598 C 301.821 274.035,302.765 274.979,303.202 275.696 C 303.639 276.413,303.998 276.769,303.999 276.486 C 304.001 275.603,302.731 273.985,301.560 273.380 C 299.910 272.526,299.594 272.677,301.104 273.598 M358.515 273.896 C 359.788 273.976,361.768 273.975,362.915 273.894 C 364.062 273.814,363.020 273.749,360.600 273.750 C 358.180 273.751,357.242 273.816,358.515 273.896 M303.600 280.511 C 303.600 281.509,301.849 283.308,300.351 283.850 C 299.489 284.162,299.281 284.350,299.775 284.370 C 301.484 284.437,304.759 281.025,303.854 280.121 C 303.714 279.981,303.600 280.157,303.600 280.511 M382.985 300.200 C 382.985 310.980,383.037 315.333,383.100 309.872 C 383.163 304.412,383.163 295.592,383.100 290.272 C 383.037 284.953,382.985 289.420,382.985 300.200 M370.600 284.800 C 370.096 285.017,370.022 285.144,370.400 285.144 C 370.730 285.144,371.360 284.989,371.800 284.800 C 372.304 284.583,372.378 284.456,372.000 284.456 C 371.670 284.456,371.040 284.611,370.600 284.800 M359.500 285.497 C 361.095 285.573,363.705 285.573,365.300 285.497 C 366.895 285.421,365.590 285.359,362.400 285.359 C 359.210 285.359,357.905 285.421,359.500 285.497 M355.777 286.116 C 355.668 286.400,355.629 289.505,355.691 293.016 L 355.803 299.400 356.001 292.499 C 356.196 285.722,356.174 285.081,355.777 286.116 M347.794 304.391 C 347.933 304.616,348.787 304.800,349.690 304.800 C 351.710 304.800,351.556 304.597,349.271 304.246 C 348.131 304.072,347.627 304.121,347.794 304.391 M185.307 311.478 C 184.304 311.675,182.000 314.258,182.000 315.185 C 182.000 315.516,182.330 315.160,182.734 314.394 C 184.307 311.406,180.921 311.601,231.200 311.601 C 281.039 311.601,278.266 311.456,279.536 314.130 C 279.831 314.752,280.161 315.172,280.269 315.065 C 280.571 314.762,279.787 313.506,278.605 312.400 L 277.536 311.400 231.868 311.351 C 206.751 311.324,185.798 311.381,185.307 311.478 M280.509 317.200 C 280.509 318.190,280.587 318.595,280.682 318.100 C 280.778 317.605,280.778 316.795,280.682 316.300 C 280.587 315.805,280.509 316.210,280.509 317.200 M181.693 317.200 C 181.693 317.970,181.775 318.285,181.876 317.900 C 181.976 317.515,181.976 316.885,181.876 316.500 C 181.775 316.115,181.693 316.430,181.693 317.200 M23.797 319.613 C 16.308 322.495,14.783 332.659,21.117 337.473 C 23.943 339.622,24.114 339.634,48.889 339.513 L 71.800 339.400 73.400 338.461 C 81.508 333.703,80.384 322.046,71.565 319.427 C 68.028 318.376,26.590 318.537,23.797 319.613 M279.600 320.200 C 279.391 320.750,278.630 321.559,277.910 321.998 C 277.124 322.478,276.863 322.798,277.259 322.799 C 277.934 322.800,280.400 320.279,280.400 319.586 C 280.400 318.872,279.983 319.192,279.600 320.200 M72.911 320.551 C 74.645 321.412,77.200 323.828,77.200 324.607 C 77.200 324.896,77.404 325.201,77.654 325.285 C 78.373 325.524,78.330 332.028,77.600 333.439 C 76.753 335.077,74.151 337.526,72.544 338.198 C 69.915 339.296,25.043 339.239,23.000 338.135 C 15.800 334.243,15.800 324.259,23.000 320.468 C 25.349 319.231,70.405 319.306,72.911 320.551 M183.657 321.816 C 184.238 322.410,184.889 322.829,185.102 322.748 C 185.316 322.666,184.841 322.181,184.046 321.668 L 182.600 320.737 183.657 321.816 M208.500 323.100 C 220.985 323.159,241.415 323.159,253.900 323.100 C 266.385 323.041,256.170 322.993,231.200 322.993 C 206.230 322.993,196.015 323.041,208.500 323.100 M347.400 323.952 C 343.726 325.639,343.600 326.243,343.600 342.160 C 343.600 355.855,343.439 357.652,341.755 362.800 C 339.342 370.172,333.436 377.742,326.750 382.032 C 324.378 383.554,324.180 384.000,326.440 382.729 C 331.659 379.796,337.572 373.171,340.343 367.151 C 343.646 359.974,343.686 359.705,343.958 342.800 C 344.248 324.849,344.005 325.729,349.244 323.633 C 349.770 323.423,349.930 323.243,349.600 323.234 C 349.270 323.225,348.280 323.548,347.400 323.952 M355.667 333.300 C 355.630 335.665,355.735 337.600,355.900 337.601 C 356.065 337.601,356.151 336.296,356.091 334.701 C 355.893 329.453,355.736 328.932,355.667 333.300 M317.200 386.411 C 315.330 387.031,314.085 387.552,314.434 387.569 C 315.133 387.603,319.850 386.124,320.800 385.573 C 321.809 384.987,320.756 385.232,317.200 386.411 " stroke="none" fill="#5ca3a3" fill-rule="evenodd"></path><path id="path2" d="M124.800 33.740 C 124.800 60.934,124.795 60.968,120.325 62.250 L 119.000 62.630 119.000 71.815 L 119.000 81.000 120.284 81.124 C 122.241 81.313,124.224 83.509,124.543 85.839 C 124.685 86.869,124.800 155.277,124.800 237.856 L 124.800 388.000 216.100 388.003 C 312.911 388.005,312.571 388.012,317.800 386.001 C 327.381 382.316,334.157 377.021,338.018 370.200 C 340.206 366.335,341.200 364.268,341.200 363.583 C 341.200 363.178,341.380 362.736,341.600 362.600 C 341.820 362.464,342.000 361.949,342.000 361.456 C 342.000 360.963,342.163 360.389,342.361 360.180 C 343.068 359.436,343.293 355.620,343.445 341.800 C 343.557 331.664,343.737 327.524,344.100 326.800 C 345.138 324.725,347.299 323.200,349.202 323.200 L 350.415 323.200 350.308 314.107 L 350.200 305.013 348.674 304.765 C 346.812 304.463,345.272 303.364,344.319 301.658 C 343.635 300.434,343.596 294.499,343.461 172.288 C 343.327 51.220,343.243 41.155,342.359 40.220 C 342.162 40.011,342.000 39.424,342.000 38.915 C 342.000 38.406,341.841 37.677,341.647 37.295 C 341.452 36.913,341.118 36.150,340.903 35.600 C 337.600 27.128,330.655 19.836,321.925 15.675 C 320.454 14.974,318.980 14.400,318.649 14.400 C 318.318 14.400,317.936 14.220,317.800 14.000 C 317.664 13.780,317.059 13.600,316.456 13.600 C 315.853 13.600,315.189 13.437,314.980 13.237 C 314.093 12.390,305.825 12.297,217.500 12.148 L 124.800 11.992 124.800 33.740 M239.000 77.130 C 242.238 77.683,243.648 77.999,244.600 78.385 C 245.040 78.563,246.210 78.949,247.200 79.244 C 256.464 81.996,267.685 91.158,272.757 100.111 C 273.283 101.040,274.048 102.390,274.457 103.112 C 274.865 103.834,275.200 104.689,275.200 105.012 C 275.200 105.335,275.380 105.600,275.600 105.600 C 275.820 105.600,276.000 106.050,276.000 106.600 C 276.000 107.150,276.180 107.600,276.400 107.600 C 276.620 107.600,276.800 108.039,276.800 108.576 C 276.800 109.113,276.980 109.664,277.200 109.800 C 277.420 109.936,277.600 110.476,277.600 111.000 C 277.600 111.524,277.761 112.052,277.958 112.174 C 279.868 113.354,279.922 132.626,278.028 137.400 C 277.854 137.840,277.494 138.920,277.229 139.800 C 275.390 145.906,270.786 153.559,266.025 158.424 L 262.963 161.552 263.981 162.070 C 267.421 163.821,275.124 168.643,276.000 169.594 C 276.110 169.713,277.184 170.619,278.386 171.605 C 283.593 175.879,294.000 187.964,294.000 189.737 C 294.000 189.837,294.686 191.062,295.525 192.459 C 302.096 203.405,306.939 225.702,303.895 231.000 C 302.241 233.880,298.249 234.866,295.195 233.149 C 293.788 232.358,293.444 231.907,292.415 229.500 C 292.204 229.005,291.946 226.620,291.842 224.200 C 291.739 221.780,291.470 218.810,291.245 217.600 C 291.020 216.390,290.726 214.770,290.591 214.000 C 290.456 213.230,290.198 212.240,290.018 211.800 C 289.838 211.360,289.459 210.190,289.176 209.200 C 288.893 208.210,288.512 207.229,288.330 207.020 C 288.149 206.811,288.000 206.401,288.000 206.109 C 288.000 205.277,285.286 199.708,283.269 196.400 C 279.075 189.523,275.070 185.081,267.722 179.157 C 263.290 175.585,256.368 172.006,249.600 169.789 C 247.730 169.177,245.801 168.389,245.312 168.038 C 243.547 166.769,242.062 162.103,243.200 161.400 C 243.420 161.264,243.600 160.837,243.600 160.451 C 243.600 159.670,245.576 157.600,246.322 157.600 C 246.585 157.600,246.800 157.464,246.800 157.298 C 246.800 157.131,247.385 156.745,248.100 156.438 C 250.903 155.237,255.759 151.309,258.813 147.773 C 267.495 137.719,269.347 121.572,263.282 108.800 C 262.708 107.590,262.121 106.510,261.979 106.400 C 261.836 106.290,261.499 105.781,261.229 105.268 C 259.791 102.540,251.802 94.800,250.423 94.800 C 250.191 94.800,250.000 94.641,250.000 94.447 C 250.000 94.252,249.685 93.990,249.300 93.864 C 248.915 93.738,247.830 93.177,246.889 92.618 C 245.948 92.058,244.834 91.600,244.413 91.600 C 243.992 91.600,243.549 91.441,243.430 91.248 C 243.200 90.877,243.044 90.831,238.600 89.830 C 235.351 89.099,226.758 88.976,224.246 89.626 C 220.416 90.616,218.920 91.124,217.105 92.047 C 216.723 92.241,216.138 92.400,215.805 92.400 C 215.472 92.400,215.200 92.536,215.200 92.702 C 215.200 92.869,214.615 93.254,213.900 93.559 C 208.618 95.811,200.615 104.529,198.438 110.400 C 198.153 111.170,197.776 112.160,197.600 112.600 C 195.929 116.787,195.520 119.674,195.731 125.800 C 195.939 131.856,196.279 134.678,196.842 135.026 C 197.039 135.148,197.200 135.599,197.200 136.029 C 197.200 136.459,197.357 137.123,197.549 137.505 C 197.740 137.887,198.484 139.370,199.201 140.800 C 202.570 147.521,208.978 154.157,214.300 156.438 C 215.015 156.745,215.600 157.131,215.600 157.298 C 215.600 157.464,215.854 157.600,216.164 157.600 C 217.008 157.600,218.714 159.821,219.253 161.619 C 220.385 165.396,218.264 168.031,212.565 169.929 C 208.244 171.368,206.834 171.944,203.800 173.510 C 202.700 174.077,201.396 174.735,200.903 174.971 C 200.410 175.207,200.005 175.535,200.003 175.700 C 200.001 175.865,199.775 176.001,199.500 176.002 C 199.225 176.003,198.051 176.723,196.892 177.602 C 195.732 178.481,194.693 179.200,194.581 179.200 C 192.994 179.200,181.801 191.550,179.174 196.200 C 177.219 199.660,175.325 203.512,174.452 205.800 C 173.948 207.120,173.370 208.513,173.168 208.895 C 172.966 209.277,172.800 210.031,172.800 210.571 C 172.800 211.111,172.640 211.652,172.444 211.773 C 172.249 211.894,171.996 212.579,171.882 213.296 C 170.664 221.013,170.423 222.958,170.410 225.200 C 170.359 234.245,161.242 237.877,158.049 230.125 C 157.188 228.035,158.093 217.059,159.616 211.100 C 160.561 207.406,160.912 206.147,161.205 205.400 C 161.378 204.960,161.736 203.970,162.000 203.200 C 167.850 186.164,180.204 172.131,198.016 162.289 L 199.302 161.579 197.151 159.277 C 194.404 156.338,193.224 154.942,192.012 153.200 C 191.477 152.430,190.940 151.710,190.819 151.600 C 189.868 150.732,186.546 143.954,185.389 140.518 C 181.815 129.908,182.050 116.700,185.978 107.400 C 191.924 93.324,203.036 82.895,216.400 78.850 C 218.050 78.351,219.953 77.775,220.628 77.571 C 221.304 77.367,222.564 77.197,223.428 77.194 C 224.293 77.191,225.270 77.008,225.600 76.788 C 226.324 76.306,235.552 76.542,239.000 77.130 M301.305 272.900 C 305.669 275.339,305.561 281.927,301.120 284.238 C 299.505 285.078,162.904 285.081,161.279 284.241 C 158.726 282.921,156.472 277.944,158.000 277.000 C 158.220 276.864,158.400 276.448,158.400 276.076 C 158.401 275.326,159.778 273.660,161.006 272.924 C 162.193 272.211,300.032 272.188,301.305 272.900 M276.600 311.200 C 276.736 311.420,277.139 311.600,277.495 311.600 C 277.852 311.600,278.741 312.253,279.472 313.050 C 282.011 315.823,280.668 322.800,277.594 322.800 C 277.183 322.800,276.736 322.980,276.600 323.200 C 276.438 323.463,260.870 323.600,231.200 323.600 C 201.530 323.600,185.962 323.463,185.800 323.200 C 185.664 322.980,185.219 322.800,184.812 322.800 C 183.815 322.800,182.130 320.726,181.547 318.782 C 180.751 316.124,182.808 311.600,184.812 311.600 C 185.219 311.600,185.664 311.420,185.800 311.200 C 185.962 310.937,201.530 310.800,231.200 310.800 C 260.870 310.800,276.438 310.937,276.600 311.200 " stroke="none" fill="#fbf3e8" fill-rule="evenodd"></path><path id="path3" d="M124.587 34.400 C 124.587 46.830,124.638 51.915,124.700 45.700 C 124.762 39.485,124.762 29.315,124.700 23.100 C 124.638 16.885,124.587 21.970,124.587 34.400 M309.800 12.400 C 310.460 12.568,311.540 12.706,312.200 12.707 C 313.209 12.708,313.145 12.655,311.800 12.377 C 309.774 11.958,308.137 11.977,309.800 12.400 M325.400 17.407 C 325.840 17.766,326.560 18.235,327.000 18.451 L 327.800 18.844 327.000 18.193 C 326.560 17.834,325.840 17.365,325.400 17.149 L 324.600 16.756 325.400 17.407 M330.000 20.525 C 330.000 20.594,330.585 21.179,331.300 21.825 L 332.600 23.000 331.425 21.700 C 330.330 20.488,330.000 20.216,330.000 20.525 M334.374 25.000 C 336.734 27.698,337.080 28.018,336.101 26.600 C 335.646 25.940,334.677 24.860,333.948 24.200 C 332.970 23.313,333.081 23.522,334.374 25.000 M342.806 42.633 C 342.809 43.055,342.995 43.670,343.218 44.000 C 343.515 44.438,343.552 44.276,343.356 43.400 C 343.027 41.929,342.798 41.610,342.806 42.633 M26.000 61.052 C 16.608 62.223,14.477 75.552,23.038 79.576 C 25.786 80.868,70.093 80.862,72.769 79.569 C 74.716 78.629,77.200 76.318,77.200 75.447 C 77.200 75.128,77.409 74.797,77.665 74.712 C 78.329 74.490,78.350 67.117,77.688 66.896 C 77.419 66.806,77.200 66.472,77.200 66.153 C 77.200 65.300,74.731 62.978,72.862 62.076 C 71.291 61.316,30.946 60.435,26.000 61.052 M118.880 62.480 C 118.340 63.020,118.168 80.609,118.700 80.939 C 118.865 81.041,118.949 76.998,118.886 71.955 L 118.771 62.785 119.686 62.418 C 120.237 62.196,120.354 62.041,119.980 62.025 C 119.639 62.011,119.144 62.216,118.880 62.480 M225.738 76.706 C 225.484 76.868,227.942 77.000,231.200 77.000 C 234.458 77.000,236.916 76.868,236.662 76.706 C 236.408 76.544,233.950 76.412,231.200 76.412 C 228.450 76.412,225.992 76.544,225.738 76.706 M255.200 82.935 C 255.200 83.035,256.143 83.720,257.296 84.458 C 258.449 85.196,260.474 86.668,261.796 87.728 C 264.022 89.514,264.067 89.532,262.400 87.979 C 260.327 86.049,255.200 82.456,255.200 82.935 M203.724 84.991 C 202.588 85.756,201.536 86.579,201.387 86.820 C 201.154 87.198,204.703 84.862,205.780 83.929 C 206.647 83.178,205.656 83.690,203.724 84.991 M124.598 237.200 C 124.598 320.250,124.644 354.225,124.700 312.700 C 124.756 271.175,124.756 203.225,124.700 161.700 C 124.644 120.175,124.598 154.150,124.598 237.200 M199.375 88.500 L 198.200 89.800 199.500 88.625 C 200.215 87.979,200.800 87.394,200.800 87.325 C 200.800 87.016,200.470 87.288,199.375 88.500 M229.900 89.089 C 230.615 89.178,231.785 89.178,232.500 89.089 C 233.215 89.001,232.630 88.928,231.200 88.928 C 229.770 88.928,229.185 89.001,229.900 89.089 M194.575 93.300 L 193.400 94.600 194.700 93.425 C 195.912 92.330,196.184 92.000,195.875 92.000 C 195.806 92.000,195.221 92.585,194.575 93.300 M209.600 96.049 C 208.206 97.271,208.205 97.272,209.488 96.419 C 210.196 95.948,210.882 95.391,211.012 95.181 C 211.397 94.557,211.077 94.754,209.600 96.049 M251.344 95.109 C 251.660 95.621,254.000 97.353,254.000 97.075 C 254.000 96.976,253.339 96.391,252.532 95.775 C 251.724 95.159,251.189 94.859,251.344 95.109 M205.775 99.300 L 204.600 100.600 205.900 99.425 C 206.615 98.779,207.200 98.194,207.200 98.125 C 207.200 97.816,206.870 98.088,205.775 99.300 M256.600 99.600 C 257.459 100.480,258.252 101.200,258.362 101.200 C 258.472 101.200,257.859 100.480,257.000 99.600 C 256.141 98.720,255.348 98.000,255.238 98.000 C 255.128 98.000,255.741 98.720,256.600 99.600 M184.846 110.467 C 184.821 110.834,184.696 111.464,184.570 111.867 C 184.352 112.562,184.363 112.563,184.797 111.887 C 185.048 111.496,185.173 110.866,185.073 110.487 C 184.911 109.868,184.888 109.866,184.846 110.467 M278.658 116.400 C 278.975 118.125,279.202 118.451,279.194 117.167 C 279.191 116.635,279.011 115.930,278.794 115.600 C 278.518 115.178,278.477 115.415,278.658 116.400 M195.850 117.250 C 195.517 118.917,195.840 119.240,196.200 117.600 C 196.352 116.909,196.393 116.259,196.291 116.158 C 196.189 116.056,195.991 116.547,195.850 117.250 M183.293 117.600 C 183.293 118.370,183.375 118.685,183.476 118.300 C 183.576 117.915,183.576 117.285,183.476 116.900 C 183.375 116.515,183.293 116.830,183.293 117.600 M182.893 120.800 C 182.893 121.570,182.975 121.885,183.076 121.500 C 183.176 121.115,183.176 120.485,183.076 120.100 C 182.975 119.715,182.893 120.030,182.893 120.800 M266.955 125.000 C 266.956 127.860,267.020 128.978,267.097 127.483 C 267.174 125.989,267.174 123.649,267.096 122.283 C 267.018 120.918,266.955 122.140,266.955 125.000 M195.348 124.800 C 195.348 127.110,195.414 128.055,195.495 126.900 C 195.576 125.745,195.576 123.855,195.495 122.700 C 195.414 121.545,195.348 122.490,195.348 124.800 M279.301 122.200 C 279.305 123.080,279.387 123.393,279.483 122.895 C 279.579 122.398,279.575 121.678,279.475 121.295 C 279.375 120.913,279.296 121.320,279.301 122.200 M279.301 127.400 C 279.305 128.280,279.387 128.593,279.483 128.095 C 279.579 127.598,279.575 126.878,279.475 126.495 C 279.375 126.113,279.296 126.520,279.301 127.400 M182.893 128.800 C 182.893 129.570,182.975 129.885,183.076 129.500 C 183.176 129.115,183.176 128.485,183.076 128.100 C 182.975 127.715,182.893 128.030,182.893 128.800 M183.293 132.000 C 183.293 132.770,183.375 133.085,183.476 132.700 C 183.576 132.315,183.576 131.685,183.476 131.300 C 183.375 130.915,183.293 131.230,183.293 132.000 M195.844 132.200 C 196.173 133.671,196.402 133.990,196.394 132.967 C 196.391 132.545,196.205 131.930,195.982 131.600 C 195.685 131.162,195.648 131.324,195.844 132.200 M278.854 132.267 C 278.825 132.744,278.696 133.464,278.570 133.867 C 278.352 134.561,278.364 134.562,278.796 133.888 C 279.047 133.497,279.175 132.777,279.081 132.288 C 278.909 131.401,278.909 131.401,278.854 132.267 M199.836 142.675 C 200.421 143.816,201.416 145.346,202.047 146.075 C 202.842 146.994,202.674 146.592,201.497 144.763 C 198.848 140.646,198.701 140.461,199.836 142.675 M23.639 147.859 C 15.987 151.195,15.422 160.814,22.600 165.545 L 24.200 166.600 47.600 166.600 L 71.000 166.600 72.900 165.629 C 78.426 162.805,80.171 155.312,76.300 151.025 C 75.915 150.598,75.600 150.142,75.600 150.011 C 75.600 149.659,73.209 148.285,71.600 147.711 C 69.368 146.915,25.493 147.050,23.639 147.859 M270.585 152.500 C 269.968 153.435,269.720 153.989,270.032 153.731 C 270.633 153.234,272.164 150.800,271.876 150.800 C 271.783 150.800,271.202 151.565,270.585 152.500 M197.104 159.216 C 198.749 160.949,199.102 161.538,198.724 161.916 C 198.402 162.238,198.387 162.400,198.677 162.400 C 199.892 162.400,199.335 161.119,197.267 159.154 L 195.000 157.000 197.104 159.216 M244.575 158.900 L 243.400 160.200 244.700 159.025 C 245.415 158.379,246.000 157.794,246.000 157.725 C 246.000 157.416,245.670 157.688,244.575 158.900 M265.178 159.100 L 263.800 160.600 265.300 159.222 C 266.696 157.938,266.984 157.600,266.678 157.600 C 266.612 157.600,265.937 158.275,265.178 159.100 M243.067 161.467 C 242.709 161.825,242.738 164.083,243.108 164.665 C 243.271 164.921,243.403 164.247,243.402 163.166 C 243.401 162.086,243.385 161.202,243.367 161.201 C 243.348 161.201,243.213 161.320,243.067 161.467 M219.260 162.867 C 219.227 163.454,219.096 164.264,218.970 164.667 C 218.752 165.360,218.765 165.361,219.195 164.690 C 219.446 164.299,219.577 163.489,219.486 162.890 L 219.320 161.800 219.260 162.867 M269.400 165.396 C 270.294 166.139,272.828 167.509,272.200 166.910 C 271.980 166.700,271.080 166.124,270.200 165.630 C 269.320 165.135,268.960 165.030,269.400 165.396 M190.269 166.837 C 189.242 167.518,188.289 168.256,188.152 168.477 C 187.950 168.804,191.788 166.334,192.367 165.764 C 192.886 165.253,191.897 165.759,190.269 166.837 M274.086 168.600 C 274.895 169.150,275.699 169.600,275.872 169.600 C 276.044 169.600,275.523 169.150,274.714 168.600 C 273.905 168.050,273.101 167.600,272.928 167.600 C 272.756 167.600,273.277 168.050,274.086 168.600 M182.575 172.900 L 181.400 174.200 182.700 173.025 C 183.415 172.379,184.000 171.794,184.000 171.725 C 184.000 171.416,183.670 171.688,182.575 172.900 M279.371 172.697 C 280.015 173.409,280.630 173.904,280.738 173.796 C 280.845 173.688,280.858 173.555,280.767 173.500 C 280.675 173.445,280.060 172.951,279.400 172.401 L 278.200 171.403 279.371 172.697 M285.200 178.525 C 285.200 178.594,285.785 179.179,286.500 179.825 L 287.800 181.000 286.625 179.700 C 285.530 178.488,285.200 178.216,285.200 178.525 M274.200 184.800 C 275.728 186.340,277.069 187.600,277.179 187.600 C 277.289 187.600,276.128 186.340,274.600 184.800 C 273.072 183.260,271.731 182.000,271.621 182.000 C 271.511 182.000,272.672 183.260,274.200 184.800 M187.588 185.100 L 185.000 187.800 187.700 185.212 C 189.185 183.788,190.400 182.573,190.400 182.512 C 190.400 182.217,189.993 182.592,187.588 185.100 M172.344 183.900 C 171.193 185.289,170.706 186.000,170.904 186.000 C 171.014 186.000,171.586 185.370,172.173 184.600 C 173.263 183.171,173.395 182.632,172.344 183.900 M278.975 190.132 C 279.591 190.939,280.176 191.600,280.275 191.600 C 280.553 191.600,278.821 189.260,278.309 188.944 C 278.059 188.789,278.359 189.324,278.975 190.132 M283.149 196.200 C 283.365 196.640,283.834 197.360,284.193 197.800 L 284.844 198.600 284.451 197.800 C 284.235 197.360,283.766 196.640,283.407 196.200 L 282.756 195.400 283.149 196.200 M170.653 218.436 C 170.514 219.131,170.421 220.173,170.447 220.750 C 170.472 221.328,170.655 220.827,170.852 219.639 C 171.237 217.321,171.073 216.334,170.653 218.436 M291.228 218.033 C 291.244 218.565,291.419 219.360,291.619 219.800 C 291.871 220.358,291.907 220.115,291.738 219.000 C 291.455 217.143,291.187 216.636,291.228 218.033 M157.852 221.300 C 157.511 222.574,157.553 229.307,157.906 229.860 C 158.068 230.114,158.200 228.089,158.200 225.360 C 158.200 219.957,158.203 219.991,157.852 221.300 M304.285 223.600 C 304.518 227.507,304.736 228.081,304.740 224.800 C 304.742 223.370,304.600 221.840,304.424 221.400 C 304.243 220.946,304.183 221.899,304.285 223.600 M170.120 226.400 C 170.120 227.610,170.195 228.105,170.287 227.500 C 170.378 226.895,170.378 225.905,170.287 225.300 C 170.195 224.695,170.120 225.190,170.120 226.400 M292.032 226.676 C 292.014 228.038,292.149 229.245,292.331 229.358 C 292.514 229.470,292.590 228.536,292.501 227.281 C 292.272 224.045,292.068 223.783,292.032 226.676 M304.446 228.467 C 304.421 228.834,304.296 229.464,304.170 229.867 C 303.952 230.562,303.963 230.563,304.397 229.887 C 304.648 229.496,304.773 228.866,304.673 228.487 C 304.511 227.868,304.488 227.866,304.446 228.467 M24.797 233.574 C 16.186 236.193,14.981 248.127,22.953 251.839 L 25.000 252.792 47.905 252.796 C 60.503 252.798,71.123 252.641,71.505 252.447 C 71.887 252.252,72.668 251.877,73.239 251.612 C 76.611 250.049,78.129 247.331,78.147 242.827 C 78.156 240.548,78.004 239.401,77.680 239.293 C 77.416 239.205,77.200 238.870,77.200 238.548 C 77.200 237.224,73.305 234.281,70.723 233.655 C 68.576 233.135,26.486 233.060,24.797 233.574 M162.900 233.887 C 163.505 233.978,164.495 233.978,165.100 233.887 C 165.705 233.795,165.210 233.720,164.000 233.720 C 162.790 233.720,162.295 233.795,162.900 233.887 M297.300 233.887 C 297.905 233.978,298.895 233.978,299.500 233.887 C 300.105 233.795,299.610 233.720,298.400 233.720 C 297.190 233.720,296.695 233.795,297.300 233.887 M157.867 277.067 C 157.511 277.422,157.537 279.282,157.906 279.862 C 158.068 280.116,158.200 279.531,158.200 278.562 C 158.200 277.593,158.185 276.800,158.167 276.800 C 158.148 276.800,158.013 276.920,157.867 277.067 M304.163 278.691 C 304.129 280.409,304.164 280.486,304.508 279.464 C 304.729 278.807,304.745 278.003,304.545 277.556 C 304.288 276.980,304.190 277.270,304.163 278.691 M196.500 284.700 C 215.585 284.757,246.815 284.757,265.900 284.700 C 284.985 284.643,269.370 284.596,231.200 284.596 C 193.030 284.596,177.415 284.643,196.500 284.700 M185.862 311.100 C 185.760 311.265,206.162 311.400,231.200 311.400 C 256.238 311.400,276.640 311.265,276.538 311.100 C 276.436 310.935,256.034 310.800,231.200 310.800 C 206.366 310.800,185.964 310.935,185.862 311.100 M183.329 312.500 C 182.884 312.995,182.376 313.670,182.201 314.000 C 181.863 314.637,181.955 314.550,183.576 312.700 C 184.106 312.095,184.449 311.600,184.339 311.600 C 184.229 311.600,183.775 312.005,183.329 312.500 M181.378 316.179 C 181.235 316.937,181.275 318.026,181.466 318.599 C 181.739 319.417,181.813 319.121,181.813 317.220 C 181.813 314.439,181.738 314.258,181.378 316.179 M23.000 320.468 C 15.800 324.259,15.800 334.243,23.000 338.135 C 25.043 339.239,69.915 339.296,72.544 338.198 C 74.151 337.526,76.753 335.077,77.600 333.439 C 78.330 332.028,78.373 325.524,77.654 325.285 C 77.404 325.201,77.200 324.896,77.200 324.607 C 77.200 323.828,74.645 321.412,72.911 320.551 C 70.405 319.306,25.349 319.231,23.000 320.468 M182.314 320.604 C 182.541 321.047,183.148 321.766,183.663 322.202 C 184.567 322.966,184.565 322.952,183.606 321.797 C 182.013 319.879,181.879 319.755,182.314 320.604 M185.862 323.300 C 185.964 323.465,206.366 323.600,231.200 323.600 C 256.034 323.600,276.436 323.465,276.538 323.300 C 276.640 323.135,256.238 323.000,231.200 323.000 C 206.162 323.000,185.760 323.135,185.862 323.300 M343.049 356.215 C 342.912 356.573,342.815 357.166,342.834 357.533 C 342.853 357.900,343.027 357.669,343.221 357.020 C 343.598 355.758,343.465 355.133,343.049 356.215 M335.174 374.100 C 334.210 375.255,333.739 375.947,334.126 375.638 C 334.904 375.018,337.368 372.000,337.096 372.000 C 337.002 372.000,336.137 372.945,335.174 374.100 M320.600 385.014 C 319.595 385.498,319.563 385.553,320.400 385.351 C 320.950 385.219,321.571 384.950,321.780 384.755 C 322.298 384.271,322.014 384.333,320.600 385.014 M311.905 387.483 C 312.402 387.579,313.122 387.575,313.505 387.475 C 313.887 387.375,313.480 387.296,312.600 387.301 C 311.720 387.305,311.407 387.387,311.905 387.483 " stroke="none" fill="#a5e0d8" fill-rule="evenodd"></path><path id="path4" d="M355.867 62.667 C 355.346 63.188,355.556 144.196,356.080 144.720 C 356.691 145.331,363.003 145.358,366.923 144.766 C 374.047 143.690,379.819 138.950,381.964 132.414 C 382.933 129.464,383.296 78.885,382.369 75.960 C 380.327 69.509,375.731 64.816,369.647 62.969 C 367.736 62.389,356.393 62.140,355.867 62.667 M380.400 217.237 C 375.488 220.473,368.929 221.996,359.900 221.999 L 356.000 222.000 356.000 247.800 L 356.000 273.600 361.700 273.595 C 373.055 273.586,379.056 269.807,381.967 260.834 C 382.824 258.195,383.326 215.955,382.500 216.026 C 382.335 216.040,381.390 216.585,380.400 217.237 M381.375 280.562 C 376.586 283.917,371.842 285.230,363.400 285.538 L 356.200 285.800 355.990 293.200 C 355.866 297.584,355.596 300.926,355.327 301.400 C 354.610 302.664,353.120 303.862,351.600 304.396 L 350.200 304.888 350.200 314.244 C 350.200 322.986,350.247 323.600,350.920 323.600 C 354.193 323.600,355.654 326.137,355.955 332.338 L 356.200 337.400 361.200 337.527 C 372.254 337.807,379.069 333.632,381.968 324.804 C 382.831 322.173,383.322 280.000,382.489 280.000 C 382.318 280.000,381.817 280.253,381.375 280.562 " stroke="none" fill="#fb9b5c" fill-rule="evenodd"></path></g></svg>